HIERARCHY
ROOT Pelvis
{
	OFFSET 0.000000 0.000000 0.000000
	CHANNELS 6 Xposition Yposition Zposition Xrotation Yrotation Zrotation
	JOINT LeftUpLeg_virtual
	{
		OFFSET 0.000000 0.000000 0.000000
		CHANNELS 3 Xrotation Yrotation Zrotation
		JOINT LeftUpLeg
		{
			OFFSET 18.735201 -5.666702 -4.541200
			CHANNELS 3 Xrotation Yrotation Zrotation
			JOINT LeftLeg
			{
				OFFSET -0.021200 -31.938179 0.493100
				CHANNELS 3 Xrotation Yrotation Zrotation
				JOINT LeftFoot
				{
					OFFSET 0.021200 -31.938179 -4.336299
					CHANNELS 3 Xrotation Yrotation Zrotation
					JOINT LeftToeBase
					{
						OFFSET 0.943001 -26.722000 15.023500
						CHANNELS 3 Xrotation Yrotation Zrotation
						End Site
						{
							OFFSET 0 0 0
						}
					}
				}
			}
		}
	}
	JOINT RightUpLeg_virtual
	{
		OFFSET 0.000000 0.000000 0.000000
		CHANNELS 3 Xrotation Yrotation Zrotation
		JOINT RightUpLeg
		{
			OFFSET -18.735201 -5.666702 -4.541200
			CHANNELS 3 Xrotation Yrotation Zrotation
			JOINT RightLeg
			{
				OFFSET 0.018946 -31.938133 0.493100
				CHANNELS 3 Xrotation Yrotation Zrotation
				JOINT RightFoot
				{
					OFFSET -0.018946 -31.938126 -4.336299
					CHANNELS 3 Xrotation Yrotation Zrotation
					JOINT RightToeBase
					{
						OFFSET -0.943001 -26.722004 15.023500
						CHANNELS 3 Xrotation Yrotation Zrotation
						End Site
						{
							OFFSET 0 0 0
						}
					}
				}
			}
		}
	}
	JOINT Hips_virtual
	{
		OFFSET 0.000000 0.000000 0.000000
		CHANNELS 3 Xrotation Yrotation Zrotation
		JOINT Hips
		{
			OFFSET -0.000000 -0.000000 -0.000000
			CHANNELS 3 Xrotation Yrotation Zrotation
			JOINT Spine
			{
				OFFSET 0.000000 10.199997 -0.299500
				CHANNELS 3 Xrotation Yrotation Zrotation
				JOINT Spine1
				{
					OFFSET 0.000000 11.900002 -1.516600
					CHANNELS 3 Xrotation Yrotation Zrotation
					JOINT Spine2
					{
						OFFSET 0.000000 13.600006 -2.842500
						CHANNELS 3 Xrotation Yrotation Zrotation
						JOINT Neck_virtual
						{
							OFFSET 0.000000 0.000000 0.000000
							CHANNELS 3 Xrotation Yrotation Zrotation
							JOINT Neck
							{
								OFFSET 0.000000 9.624100 -2.890100
								CHANNELS 3 Xrotation Yrotation Zrotation
								JOINT Head
								{
									OFFSET 0.000000 14.068802 -1.351900
									CHANNELS 3 Xrotation Yrotation Zrotation
									End Site
									{
										OFFSET 0 0 0
									}
								}
							}
						}
						JOINT LeftShoulder_virtual
						{
							OFFSET 0.000000 0.000000 0.000000
							CHANNELS 3 Xrotation Yrotation Zrotation
							JOINT LeftShoulder
							{
								OFFSET 15.263000 10.923401 -0.547700
								CHANNELS 3 Xrotation Yrotation Zrotation
								JOINT LeftArm
								{
									OFFSET 25.438599 -2.830597 -13.032500
									CHANNELS 3 Xrotation Yrotation Zrotation
									JOINT LeftForeArm
									{
										OFFSET 29.960503 0.000000 0.000000
										CHANNELS 3 Xrotation Yrotation Zrotation
										JOINT LeftHand
										{
											OFFSET 27.849251 0.000000 0.000000
											CHANNELS 3 Xrotation Yrotation Zrotation
											End Site
											{
												OFFSET 0 0 0
											}
										}
									}
								}
							}
						}
						JOINT RightShoulder_virtual
						{
							OFFSET 0.000000 0.000000 0.000000
							CHANNELS 3 Xrotation Yrotation Zrotation
							JOINT RightShoulder
							{
								OFFSET -15.263000 10.923401 -0.547700
								CHANNELS 3 Xrotation Yrotation Zrotation
								JOINT RightArm
								{
									OFFSET -25.438599 -2.830597 -13.032500
									CHANNELS 3 Xrotation Yrotation Zrotation
									JOINT RightForeArm
									{
										OFFSET -29.960503 0.000000 0.000000
										CHANNELS 3 Xrotation Yrotation Zrotation
										JOINT RightHand
										{
											OFFSET -27.849251 0.000000 0.000000
											CHANNELS 3 Xrotation Yrotation Zrotation
											End Site
											{
												OFFSET 0 0 0
											}
										}
									}
								}
							}
						}
					}
				}
			}
		}
	}
}
MOTION
Frames: 7
Frame Time: 0.03333333
-0.784829 83.673920 9.109715 0.000000 0.000000 0.000000 -7.638042 2.643505 8.196262 -69.332185 9.988300 -2.827928 95.778602 10.319461 12.040246 32.485630 4.975170 21.075640 0.000000 0.000000 0.000000 -7.952735 -1.445154 9.929630 -10.011314 0.540070 -11.706152 44.961387 -3.345547 2.805783 -19.385699 9.266769 -14.204153 0.000000 0.000000 0.000000 -2.107397 -1.020146 10.110628 0.028831 -0.704073 0.343078 10.606228 -3.994541 0.228678 11.203748 0.312010 0.520886 0.000000 0.000000 0.000000 12.828016 1.941839 -0.192121 0.627725 0.438531 0.903070 0.000000 0.000000 0.000000 10.924981 1.328593 -1.004692 3.419127 -9.421386 -3.718702 23.461041 23.063783 -71.431136 136.824330 -78.999887 124.495046 0.000000 0.000000 0.000000 11.418827 2.078587 -0.816829 1.677886 13.977525 8.299297 -9.776445 -23.619279 58.797014 -116.873798 72.058892 120.834693 0.000000 0.000000 0.000000 
-1.403131 83.890617 22.953239 0.000000 0.000000 0.000000 -7.816659 0.447378 9.274601 -70.373611 5.382873 -2.408748 89.575165 8.541180 14.141377 27.575299 -1.743502 16.132809 0.000000 0.000000 0.000000 -6.967527 -1.769769 10.462233 -11.447618 0.223182 -9.438843 46.493764 -3.367038 2.644429 -12.066976 7.952913 -12.325727 0.000000 0.000000 0.000000 -2.508892 -1.156398 11.222318 -0.139796 -1.258964 1.129263 10.181988 -3.013129 -0.156192 11.032071 0.908383 -0.370752 0.000000 0.000000 0.000000 12.729203 2.190178 -1.056763 0.611969 0.470816 0.728599 0.000000 0.000000 0.000000 10.739065 2.077989 -1.409817 2.736861 -7.670314 -3.277050 25.490536 24.891924 -70.717907 90.547285 -81.670956 77.747825 0.000000 0.000000 0.000000 11.294136 2.234750 -1.858001 1.678960 13.028124 5.761816 -16.569252 -21.835480 49.369973 -132.668829 68.771986 137.169965 0.000000 0.000000 0.000000 
-1.861889 82.022995 41.841072 0.000000 0.000000 0.000000 -6.878678 -5.678494 12.190098 -70.866771 1.320683 -2.008451 76.290679 7.712650 14.380273 24.936459 -4.213240 11.247444 0.000000 0.000000 0.000000 -6.104835 -5.978479 12.729107 -12.081357 0.350136 -6.530383 47.301181 -0.979403 2.305913 11.549765 7.419175 -4.846624 0.000000 0.000000 0.000000 -4.050121 -4.718467 13.906280 -0.350453 -2.520863 0.977147 8.513584 -1.119636 -1.171660 10.698184 1.474635 -2.323889 0.000000 0.000000 0.000000 12.406018 2.605825 -3.174667 0.708724 0.530549 0.223980 0.000000 0.000000 0.000000 10.857901 2.890040 -2.982033 2.071412 -4.749005 -2.364403 27.038612 27.428067 -67.509323 41.477601 -75.145939 27.302115 0.000000 0.000000 0.000000 11.635717 2.548849 -3.911579 1.915810 11.165584 1.113533 -19.188581 -21.015587 42.441395 -150.238275 61.930937 155.204383 0.000000 0.000000 0.000000 
-2.218718 77.345154 61.822517 0.000000 0.000000 0.000000 -5.741778 -14.836238 16.534949 -72.132781 -1.351879 -1.669721 60.862327 8.907603 12.961513 27.263356 -1.970124 8.510457 0.000000 0.000000 0.000000 -5.931775 -13.945406 16.430841 -14.577092 0.311351 -3.151050 52.627434 3.620516 1.688763 42.515083 11.061346 3.790617 0.000000 0.000000 0.000000 -6.296783 -12.021499 17.373816 -1.429991 -3.324131 0.083965 6.604909 1.128225 -2.426445 10.531973 1.861749 -4.812033 0.000000 0.000000 0.000000 12.096220 3.006538 -5.868102 0.881715 0.608838 -0.509476 0.000000 0.000000 0.000000 11.396463 3.429640 -5.222114 1.505974 -1.750107 -2.220739 27.562692 29.746276 -62.831607 27.920125 -64.229569 11.707130 0.000000 0.000000 0.000000 12.304953 2.889887 -6.426019 2.009359 9.000981 -3.637579 -15.509488 -22.558926 40.982672 -161.863667 53.937461 166.957759 0.000000 0.000000 0.000000 
-1.829872 69.828728 82.561371 0.000000 0.000000 0.000000 -4.912436 -26.419844 21.667484 -74.464259 -3.589593 -1.554509 48.791460 10.829961 11.446977 33.244873 1.690030 6.422842 0.000000 0.000000 0.000000 -6.844631 -24.271948 20.787177 -21.692394 -1.333375 0.235405 68.047679 8.256158 0.592446 64.292755 14.871764 8.747154 0.000000 0.000000 0.000000 -8.663822 -22.752743 21.082963 -2.019866 -3.931948 -1.245300 5.284944 3.014488 -3.452921 10.711244 1.927061 -7.220534 0.000000 0.000000 0.000000 12.028347 3.102283 -8.367483 1.091673 0.722554 -1.312254 0.000000 0.000000 0.000000 12.176997 3.424858 -7.500699 1.158231 0.726434 -3.501337 27.707038 31.059291 -58.559453 24.071960 -53.044642 5.505986 0.000000 0.000000 0.000000 13.252649 2.974869 -8.769833 1.855625 7.533485 -6.915328 -6.051831 -25.600597 45.261758 -169.065719 47.837245 174.076879 0.000000 0.000000 0.000000 
-0.948282 60.125961 102.796974 0.000000 0.000000 0.000000 -4.855462 -38.443713 26.731660 -76.162388 -5.979453 -1.364899 42.273014 10.991127 10.089147 40.205813 2.274557 2.634853 0.000000 0.000000 0.000000 -8.186033 -35.676981 25.019669 -35.046459 -5.525043 2.907026 91.651966 10.697588 -0.621772 73.221800 15.781092 12.583270 0.000000 0.000000 0.000000 -10.802366 -34.801757 24.535433 -2.304741 -3.145556 -2.174876 5.341240 3.818154 -4.159312 11.449247 1.492073 -8.993577 0.000000 0.000000 0.000000 12.485890 2.650568 -10.104481 1.299382 0.884459 -2.039487 0.000000 0.000000 0.000000 12.989503 2.766796 -9.266892 1.003456 2.199407 -7.010797 27.096781 31.010633 -55.829994 23.323440 -42.757145 2.491455 0.000000 0.000000 0.000000 14.313568 2.544449 -10.424152 1.494302 7.215915 -7.432443 5.669908 -27.890118 53.063702 -174.020584 46.266735 179.026321 0.000000 0.000000 0.000000 
0.022952 49.502869 122.727661 0.000000 0.000000 0.000000 -5.817011 -48.113034 31.189854 -77.471147 -7.824800 0.174537 39.532558 9.158669 7.716845 47.234279 -1.954959 -3.157977 0.000000 0.000000 0.000000 -9.341088 -44.578295 28.488130 -52.971600 -11.557837 4.097763 113.530291 11.460880 -1.209657 74.220619 16.171897 17.276292 0.000000 0.000000 0.000000 -11.638135 -45.583228 28.057809 -2.604721 -1.691460 -2.276162 6.663498 3.290406 -4.670165 12.600482 0.428795 -9.931229 0.000000 0.000000 0.000000 13.448315 1.471111 -10.824106 1.407187 1.101466 -2.668530 0.000000 0.000000 0.000000 13.820247 1.450341 -10.120652 0.913727 2.494294 -12.432414 25.032903 29.581355 -54.339619 23.767749 -34.760465 1.170090 0.000000 0.000000 0.000000 15.158118 1.381835 -11.143845 0.999456 7.642615 -5.209019 14.267645 -27.519051 59.843829 -178.565488 50.058859 -176.386603 0.000000 0.000000 0.000000 
